<?xml version="1.0" encoding="UTF-8"?>
<svg id="Layer_2" data-name="Layer 2" xmlns="http://www.w3.org/2000/svg" viewBox="0 0 618.97 359.81">
  <defs>
    <style>
      .cls-1 {
        fill: #121212;
      }

      .cls-2 {
        fill: #fff;
      }

      .cls-3 {
        fill: #f5599c;
      }
    </style>
  </defs>
  <g id="Layer_1-2" data-name="Layer 1">
    <path class="cls-3" d="M274.44,12.95c4.06,3.99,6.05,9.33,6.73,15.16,3.17,97.13.4,194.8,1.23,292.14.07,8.37-.67,17.52-6.39,23.96-5.91,6.33-13.36,9.87-21.13,10.04-26.56-.61-173,1.02-233.2-.48C-5.82,344.78.98,322.87.24,295.57c-.13-61.02.1-229.24,0-264.89C.17,18.64,11.5,6.18,23.78,4.85c15.25-.4,78.04.09,138.39-.09,20.99,0,41.05,0,57.36,0,24.6,1.62,39.51-5.31,54.78,8.06l.13.13Z"/>
    <path class="cls-1" d="M603.19,70.04c10.58,18.88,17.89,46.94,15.23,67.83-1.45,12.03-11.38,21.85-23.57,23.45-11.25,1.84-23.53-3.16-29.18-13.32-4.31-7.31-4.66-15.84-5.8-24.13-6.61-45.9-54.69-76.47-99.43-65.42-26.44,5.76-51.79,27.03-58.33,53.53-.88,3.84-.34,6.54,2.35,9.06,8.1,7.82,32.07,30.77,52.24,50.14,14.94,14.37,22.45,21.46,32.96,31.69,6.77,6.63,16.2,15.96,17.27,26.54,1.83,12.02-4.85,24.73-16.22,29.29-14.58,6.19-28.42-.87-38.9-11.31-10.75-10.03-21.41-20.14-32.05-30.3-22.22-21.24-44.3-42.7-66.27-64.18-3.38-3.35-6.76-6.84-9.26-10.87-7.07-11.41-5.08-26.03-2.08-39.18,29.65-120.17,199.94-140.04,260.96-32.98l.1.17Z"/>
    <path class="cls-1" d="M603.22,288.82c-59.26,105.44-224.33,90.89-259.17-26.77-4.93-17.43-11.01-43.03,3.71-56.35,14.38-12.65,37.59-9.57,46.35,8.17,3.99,7.48,3.81,15.8,5.28,24.44.82,4.87,2.12,9.66,3.88,14.27,17.56,47.16,79.02,65.53,120.72,37.67,10.69-6.64,19.4-15.73,25.15-26.85,4.36-8.17,9.69-17.58,3.14-25.53-27.15-28.54-56.66-55.08-85.11-82.32-7.2-6.85-14.43-14.79-16.14-24.83-3.53-17.6,11.8-33.06,29.71-32.26,6.57.22,12.22,2.8,17.38,6.5,34.11,29.12,65.28,61.88,97.49,93.1,7.49,7.69,17.22,14.48,20.98,24.81,6.01,20.22-3.7,47.63-13.29,65.8l-.09.16Z"/>
    <path class="cls-2" d="M150.24,40.84c2.11.82,2.57,1.77,2.36,3.58-2.13,22.44-17.66,183.52-19.02,198.38-.22,1.84,1.32,1.21,2.42.89,22.35-7.74,69.99-24.62,88.12-30.92,5.48-2.28,6.86,2.09,8.17,7.18.74,2.94,1.39,5.99,1.9,9.02,2.82,19.73,3.29,38.48,5.7,58.79.49,5.14.95,10.56,1.25,15.68.02,5,1.67,13.55-2.51,15.58-4.73,1.41-11.5-1.26-16.65-1.86-30.62-5.12-62.02-8.15-92.69-13.42-7.31-1.23-14.11-1.15-21.76-1.38-6.11-.17-15.95-1.77-18.32-7.28-1.85-5.27-1.9-8.86-3.5-16.09-4.43-22.96-10.9-56.2-15.26-78.78-8.86-40.07-17.78-80.95-26.08-121.06-1.29-6.18-2.51-12.26-3.67-18.84-.67-3.87-1.69-9.26.6-12.32,4.82-9.69,97.29-11.86,108.87-7.21l.09.03Z"/>
  </g>
</svg>